<svg xmlns="http://www.w3.org/2000/svg" version="1.1" xmlns:xlink="http://www.w3.org/1999/xlink" xmlns:svgjs="http://svgjs.dev/svgjs" viewBox="0 0 12.31170173917893 1.9674686545655855"><g transform="matrix(1,0,0,1,0.37513432728279295,0.6222343272827927)"><g><path d=" M 0.534 0.01100000000000001 L 0.534 0.16699999999999993 L 0.252 0.16699999999999993 L 0.252 0.291 L 0.46 0.291 L 0.46 0.43999999999999995 L 0.252 0.43999999999999995 L 0.252 0.716 L 0.056 0.716 L 0.056 0.01100000000000001 L 0.534 0.01100000000000001 M 1.06197412109375 0.601 L 0.81197412109375 0.601 L 0.77397412109375 0.716 L 0.56797412109375 0.716 L 0.82497412109375 0.01100000000000001 L 1.05097412109375 0.01100000000000001 L 1.30697412109375 0.716 L 1.0999741210937501 0.716 L 1.06197412109375 0.601 M 1.01297412109375 0.45099999999999996 L 0.93697412109375 0.22299999999999998 L 0.8619741210937499 0.45099999999999996 L 1.01297412109375 0.45099999999999996 M 2.02297900390625 0.716 L 1.8269790039062501 0.716 L 1.56597900390625 0.32199999999999995 L 1.56597900390625 0.716 L 1.36997900390625 0.716 L 1.36997900390625 0.01100000000000001 L 1.56597900390625 0.01100000000000001 L 1.8269790039062501 0.41 L 1.8269790039062501 0.01100000000000001 L 2.02297900390625 0.01100000000000001 L 2.02297900390625 0.716 M 2.6649936523437496 0.01100000000000001 L 2.6649936523437496 0.16699999999999993 L 2.47699365234375 0.16699999999999993 L 2.47699365234375 0.716 L 2.2809936523437497 0.716 L 2.2809936523437497 0.16699999999999993 L 2.09499365234375 0.16699999999999993 L 2.09499365234375 0.01100000000000001 L 2.6649936523437496 0.01100000000000001 M 3.18299755859375 0.601 L 2.93299755859375 0.601 L 2.89499755859375 0.716 L 2.68899755859375 0.716 L 2.94599755859375 0.01100000000000001 L 3.17199755859375 0.01100000000000001 L 3.42799755859375 0.716 L 3.22099755859375 0.716 L 3.18299755859375 0.601 M 3.13399755859375 0.45099999999999996 L 3.05799755859375 0.22299999999999998 L 2.98299755859375 0.45099999999999996 L 3.13399755859375 0.45099999999999996" fill="#13525f" fill-rule="nonzero"></path></g><g><path d=" M 5.440981424457097 0.3625 Q 5.411481424457097 0.415 5.351981424457097 0.44649999999999995 Q 5.292481424457097 0.478 5.206481424457097 0.478 L 5.109481424457097 0.478 L 5.109481424457097 0.716 L 4.913481424457097 0.716 L 4.913481424457097 0.01100000000000001 L 5.206481424457097 0.01100000000000001 Q 5.291481424457097 0.01100000000000001 5.350981424457097 0.040999999999999925 Q 5.410481424457097 0.07099999999999995 5.440481424457097 0.124 Q 5.4704814244570965 0.17699999999999994 5.4704814244570965 0.24599999999999994 Q 5.4704814244570965 0.30999999999999994 5.440981424457097 0.3625 M 5.270481424457097 0.24599999999999994 Q 5.270481424457097 0.16899999999999993 5.187481424457097 0.16899999999999993 L 5.109481424457097 0.16899999999999993 L 5.109481424457097 0.32199999999999995 L 5.187481424457097 0.32199999999999995 Q 5.270481424457097 0.32199999999999995 5.270481424457097 0.24599999999999994 M 5.905467752582097 0.716 L 5.765467752582096 0.45599999999999996 L 5.744467752582096 0.45599999999999996 L 5.744467752582096 0.716 L 5.548467752582097 0.716 L 5.548467752582097 0.01100000000000001 L 5.857467752582097 0.01100000000000001 Q 5.942467752582097 0.01100000000000001 6.001467752582097 0.04049999999999998 Q 6.060467752582097 0.06999999999999995 6.0904677525820965 0.12149999999999994 Q 6.120467752582097 0.17299999999999993 6.120467752582097 0.23699999999999993 Q 6.120467752582097 0.30899999999999994 6.080967752582096 0.3635 Q 6.041467752582097 0.418 5.9654677525820965 0.44099999999999995 L 6.124467752582096 0.716 L 5.905467752582097 0.716 M 5.744467752582096 0.32199999999999995 L 5.841467752582097 0.32199999999999995 Q 5.881467752582097 0.32199999999999995 5.901467752582096 0.30299999999999994 Q 5.921467752582097 0.284 5.921467752582097 0.24799999999999994 Q 5.921467752582097 0.21399999999999997 5.900967752582097 0.1945 Q 5.8804677525820965 0.17499999999999993 5.841467752582097 0.17499999999999993 L 5.744467752582096 0.17499999999999993 L 5.744467752582096 0.32199999999999995 M 6.364478494769596 0.6765 Q 6.281478494769596 0.63 6.232978494769596 0.5475 Q 6.184478494769596 0.46499999999999997 6.184478494769596 0.361 Q 6.184478494769596 0.25699999999999995 6.232978494769596 0.1745 Q 6.281478494769596 0.09199999999999997 6.364478494769596 0.04599999999999993 Q 6.447478494769596 0 6.546478494769596 0 Q 6.646478494769596 0 6.7289784947695965 0.04599999999999993 Q 6.811478494769596 0.09199999999999997 6.859478494769596 0.1745 Q 6.907478494769596 0.25699999999999995 6.907478494769596 0.361 Q 6.907478494769596 0.46499999999999997 6.859478494769596 0.5475 Q 6.811478494769596 0.63 6.728478494769597 0.6765 Q 6.645478494769597 0.723 6.546478494769596 0.723 Q 6.447478494769596 0.723 6.364478494769596 0.6765 M 6.6649784947695965 0.492 Q 6.708478494769596 0.44299999999999995 6.708478494769596 0.361 Q 6.708478494769596 0.27699999999999997 6.6649784947695965 0.22849999999999998 Q 6.621478494769597 0.17999999999999994 6.546478494769596 0.17999999999999994 Q 6.470478494769596 0.17999999999999994 6.427478494769597 0.22849999999999998 Q 6.3844784947695965 0.27699999999999997 6.3844784947695965 0.361 Q 6.3844784947695965 0.44399999999999995 6.427478494769597 0.49249999999999994 Q 6.470478494769596 0.5409999999999999 6.546478494769596 0.5409999999999999 Q 6.621478494769597 0.5409999999999999 6.6649784947695965 0.492 M 7.647465799457096 0.716 L 7.451465799457096 0.716 L 7.190465799457096 0.32199999999999995 L 7.190465799457096 0.716 L 6.994465799457096 0.716 L 6.994465799457096 0.01100000000000001 L 7.190465799457096 0.01100000000000001 L 7.451465799457096 0.41 L 7.451465799457096 0.01100000000000001 L 7.647465799457096 0.01100000000000001 L 7.647465799457096 0.716 M 7.914480447894595 0.6765 Q 7.831480447894595 0.63 7.782980447894595 0.5475 Q 7.734480447894596 0.46499999999999997 7.734480447894596 0.361 Q 7.734480447894596 0.25699999999999995 7.782980447894595 0.1745 Q 7.831480447894595 0.09199999999999997 7.914480447894595 0.04599999999999993 Q 7.997480447894596 0 8.096480447894596 0 Q 8.196480447894595 0 8.278980447894595 0.04599999999999993 Q 8.361480447894596 0.09199999999999997 8.409480447894596 0.1745 Q 8.457480447894596 0.25699999999999995 8.457480447894596 0.361 Q 8.457480447894596 0.46499999999999997 8.409480447894596 0.5475 Q 8.361480447894596 0.63 8.278480447894596 0.6765 Q 8.195480447894596 0.723 8.096480447894596 0.723 Q 7.997480447894596 0.723 7.914480447894595 0.6765 M 8.214980447894595 0.492 Q 8.258480447894595 0.44299999999999995 8.258480447894595 0.361 Q 8.258480447894595 0.27699999999999997 8.214980447894595 0.22849999999999998 Q 8.171480447894595 0.17999999999999994 8.096480447894596 0.17999999999999994 Q 8.020480447894595 0.17999999999999994 7.977480447894596 0.22849999999999998 Q 7.934480447894596 0.27699999999999997 7.934480447894596 0.361 Q 7.934480447894596 0.44399999999999995 7.977480447894596 0.49249999999999994 Q 8.020480447894595 0.5409999999999999 8.096480447894596 0.5409999999999999 Q 8.171480447894595 0.5409999999999999 8.214980447894595 0.492 M 8.608467752582095 0.6645 Q 8.529467752582097 0.606 8.523467752582096 0.497 L 8.732467752582096 0.497 Q 8.735467752582096 0.534 8.754467752582096 0.5509999999999999 Q 8.773467752582096 0.568 8.803467752582096 0.568 Q 8.830467752582097 0.568 8.847967752582097 0.5545 Q 8.865467752582097 0.5409999999999999 8.865467752582097 0.5169999999999999 Q 8.865467752582097 0.486 8.836467752582097 0.469 Q 8.807467752582097 0.45199999999999996 8.742467752582096 0.43099999999999994 Q 8.673467752582097 0.408 8.630967752582096 0.38649999999999995 Q 8.588467752582096 0.36499999999999994 8.556967752582096 0.32349999999999995 Q 8.525467752582097 0.282 8.525467752582097 0.21499999999999997 Q 8.525467752582097 0.1469999999999999 8.559467752582096 0.09849999999999992 Q 8.593467752582097 0.04999999999999993 8.653467752582095 0.02499999999999991 Q 8.713467752582096 0 8.789467752582096 0 Q 8.912467752582096 0 8.985967752582097 0.057499999999999996 Q 9.059467752582096 0.11499999999999999 9.064467752582097 0.21899999999999997 L 8.851467752582096 0.21899999999999997 Q 8.850467752582096 0.18699999999999994 8.831967752582097 0.17099999999999993 Q 8.813467752582095 0.15499999999999992 8.784467752582096 0.15499999999999992 Q 8.762467752582097 0.15499999999999992 8.748467752582096 0.16799999999999993 Q 8.734467752582097 0.18099999999999994 8.734467752582097 0.20499999999999996 Q 8.734467752582097 0.22499999999999998 8.749967752582096 0.23949999999999994 Q 8.765467752582095 0.25399999999999995 8.788467752582097 0.26449999999999996 Q 8.811467752582097 0.27499999999999997 8.856467752582097 0.291 Q 8.923467752582097 0.31399999999999995 8.966967752582097 0.33649999999999997 Q 9.010467752582096 0.359 9.041967752582096 0.39949999999999997 Q 9.073467752582097 0.43999999999999995 9.073467752582097 0.502 Q 9.073467752582097 0.565 9.041967752582096 0.615 Q 9.010467752582096 0.6649999999999999 8.950967752582097 0.694 Q 8.891467752582097 0.723 8.810467752582095 0.723 Q 8.687467752582096 0.723 8.608467752582095 0.6645 M 9.694462869769596 0.01100000000000001 L 9.694462869769596 0.16699999999999993 L 9.506462869769596 0.16699999999999993 L 9.506462869769596 0.716 L 9.310462869769596 0.716 L 9.310462869769596 0.16699999999999993 L 9.124462869769596 0.16699999999999993 L 9.124462869769596 0.01100000000000001 L 9.694462869769596 0.01100000000000001 M 9.962466776019598 0.01100000000000001 L 9.962466776019598 0.716 L 9.766466776019596 0.716 L 9.766466776019596 0.01100000000000001 L 9.962466776019598 0.01100000000000001 M 10.092950174457098 0.1765 Q 10.136450174457098 0.09499999999999997 10.216450174457098 0.04949999999999999 Q 10.296450174457098 0.0040000000000000036 10.400450174457099 0.0040000000000000036 Q 10.532450174457098 0.0040000000000000036 10.622450174457098 0.07450000000000001 Q 10.712450174457098 0.1449999999999999 10.738450174457098 0.26599999999999996 L 10.527450174457098 0.26599999999999996 Q 10.508450174457098 0.22599999999999998 10.474950174457097 0.20499999999999996 Q 10.441450174457097 0.18399999999999994 10.397450174457099 0.18399999999999994 Q 10.329450174457097 0.18399999999999994 10.288950174457097 0.23249999999999998 Q 10.248450174457098 0.28099999999999997 10.248450174457098 0.362 Q 10.248450174457098 0.44399999999999995 10.288950174457097 0.49249999999999994 Q 10.329450174457097 0.5409999999999999 10.397450174457099 0.5409999999999999 Q 10.441450174457097 0.5409999999999999 10.474950174457097 0.52 Q 10.508450174457098 0.499 10.527450174457098 0.45899999999999996 L 10.738450174457098 0.45899999999999996 Q 10.712450174457098 0.58 10.622450174457098 0.6505 Q 10.532450174457098 0.721 10.400450174457099 0.721 Q 10.296450174457098 0.721 10.216450174457098 0.6755 Q 10.136450174457098 0.63 10.092950174457098 0.5485 Q 10.049450174457098 0.46699999999999997 10.049450174457098 0.362 Q 10.049450174457098 0.25799999999999995 10.092950174457098 0.1765 M 10.986445779925848 0.6765 Q 10.903445779925848 0.63 10.854945779925849 0.5475 Q 10.806445779925848 0.46499999999999997 10.806445779925848 0.361 Q 10.806445779925848 0.25699999999999995 10.854945779925849 0.1745 Q 10.903445779925848 0.09199999999999997 10.986445779925848 0.04599999999999993 Q 11.069445779925848 0 11.168445779925849 0 Q 11.268445779925848 0 11.350945779925848 0.04599999999999993 Q 11.433445779925849 0.09199999999999997 11.48144577992585 0.1745 Q 11.52944577992585 0.25699999999999995 11.52944577992585 0.361 Q 11.52944577992585 0.46499999999999997 11.48144577992585 0.5475 Q 11.433445779925849 0.63 11.350445779925849 0.6765 Q 11.267445779925849 0.723 11.168445779925849 0.723 Q 11.069445779925848 0.723 10.986445779925848 0.6765 M 11.286945779925848 0.492 Q 11.33044577992585 0.44299999999999995 11.33044577992585 0.361 Q 11.33044577992585 0.27699999999999997 11.286945779925848 0.22849999999999998 Q 11.243445779925848 0.17999999999999994 11.168445779925849 0.17999999999999994 Q 11.092445779925848 0.17999999999999994 11.049445779925849 0.22849999999999998 Q 11.006445779925848 0.27699999999999997 11.006445779925848 0.361 Q 11.006445779925848 0.44399999999999995 11.049445779925849 0.49249999999999994 Q 11.092445779925848 0.5409999999999999 11.168445779925849 0.5409999999999999 Q 11.243445779925848 0.5409999999999999 11.286945779925848 0.492" fill="#13525f" fill-rule="nonzero"></path></g><g></g><g clip-path="url(#SvgjsClipPath1002)"><g clip-path="url(#SvgjsClipPath10016fcd812a-6090-4dd1-b5ef-815828fbc689)"><path d=" M 3.835449390558794 0.16754288135593198 C 3.8223429498808263 0.18738457627118665 3.80919605722546 0.20724649717514065 3.796008712592692 0.22712864406779654 C 3.781454982265704 0.24604054427325506 3.768841216166292 0.2663689344415243 3.75835803462659 0.2878066101694918 C 3.7522902380164216 0.3029761016949154 3.7697048142876075 0.31908610169491536 3.782629221067269 0.3057066101694914 C 3.7977450909987582 0.28758953433149836 3.8109612538448245 0.2679686156446468 3.822069899033371 0.24715237288135544 C 3.8356010854740483 0.2258544067796615 3.849152497903425 0.2044451977401126 3.8627241363215044 0.18292474576271234 C 3.874010238016421 0.16544949152542432 3.846553458355404 0.15076542372881385 3.835449390558794 0.16754288135593198 Z" fill="#13525f" transform="matrix(1,0,0,1,0,0)" fill-rule="evenodd"></path></g><g clip-path="url(#SvgjsClipPath10016fcd812a-6090-4dd1-b5ef-815828fbc689)"><path d=" M 3.937509729541844 0.11444966101694898 C 3.8761643058130306 0.2125962711864413 3.79952803462659 0.31165305084745754 3.751228373609641 0.41659559322033934 C 3.743947017677437 0.43264491525423787 3.765427017677437 0.45203152542372926 3.7780176956435385 0.43622491525423723 C 3.8508312549655725 0.34387305084745745 3.9043188820842163 0.23043559322033952 3.9647541363215035 0.12958881355932184 C 3.9752514244570993 0.112295593220339 3.948007017677437 0.09749016949152567 3.937509729541844 0.11444966101694898 Z" fill="#13525f" transform="matrix(1,0,0,1,0,0)" fill-rule="evenodd"></path></g><g clip-path="url(#SvgjsClipPath10016fcd812a-6090-4dd1-b5ef-815828fbc689)"><path d=" M 3.9940919329316746 0.14117830508474605 C 3.9570783736096415 0.20009661016949232 3.920226622197212 0.2592272881355945 3.8835366786943855 0.31857033898305154 C 3.8467648447779 0.36898133528660637 3.816205325577542 0.4236421286296429 3.792519729541844 0.4813693220338987 C 3.7910976156419354 0.48783417248633376 3.794103047274157 0.4944634376318734 3.799902642694375 0.4976542670347748 C 3.805702238114595 0.5008450964376763 3.812910565859588 0.49983525150571906 3.817610068524895 0.495173559322036 C 3.8600846447960797 0.45075728813559424 3.8862368481859115 0.3898062711864416 3.9170915939486237 0.33707711864406886 C 3.9524061702198097 0.2770059322033913 3.9879533453610527 0.217137005649719 4.023733119372351 0.15747033898305202 C 4.0348371871689634 0.1385994915254244 4.005590407507946 0.12273220338983187 3.9940919329316746 0.14117830508474605 Z" fill="#13525f" transform="matrix(1,0,0,1,0,0)" fill-rule="evenodd"></path></g><g clip-path="url(#SvgjsClipPath10016fcd812a-6090-4dd1-b5ef-815828fbc689)"><path d=" M 4.052797865135065 0.20043033898305102 C 3.9981876956435385 0.288959491525424 3.9306531193723524 0.3730591525423733 3.8815343058130316 0.4643794915254238 C 3.8724326108977767 0.4812783050847457 3.8960666786943867 0.4999974576271188 3.909324814287607 0.48470661016949157 C 3.9779212549655742 0.40582525423728777 4.029588543101167 0.30649542372881333 4.082954814287608 0.21702576271186408 C 4.094422949880826 0.1979425423728815 4.06444803462659 0.18165050847457642 4.052797865135065 0.20043033898305102 Z" fill="#13525f" transform="matrix(1,0,0,1,0,0)" fill-rule="evenodd"></path></g><g clip-path="url(#SvgjsClipPath10016fcd812a-6090-4dd1-b5ef-815828fbc689)"><path d=" M 4.097456848185912 0.25282576271186513 C 4.049665320939908 0.3216013068811354 4.006644916382329 0.39357229471308697 3.968698204118113 0.4682325423728805 C 3.9614471871689614 0.48522237288135617 3.9836553227621816 0.5062776271186435 3.997095492253706 0.48910576271186446 C 4.045685355359159 0.41904841397747306 4.089356955328337 0.34570486110444676 4.127795831236757 0.26960322033898243 C 4.138990915982522 0.2503986440677979 4.108894644796081 0.2338032203389831 4.097456848185912 0.25282576271186513 Z" fill="#13525f" transform="matrix(1,0,0,1,0,0)" fill-rule="evenodd"></path></g><g clip-path="url(#SvgjsClipPath10016fcd812a-6090-4dd1-b5ef-815828fbc689)"><path d=" M 4.059533119372352 -0.21903644067796546 C 4.051068543101165 -0.2082357627118641 4.042573627846928 -0.19755644067796552 4.034169729541842 -0.18687711864406698 C 4.024593085818516 -0.17755459114409175 4.017321564270466 -0.16612791442572591 4.0129324414062495 -0.153504237288134 C 4.011781207032607 -0.14795230621415661 4.013971205318265 -0.14223865156140347 4.018538357484476 -0.13887853246769027 C 4.023105509650689 -0.13551841337397713 4.029212036671502 -0.13512819583696972 4.034169729541842 -0.1378796610169489 C 4.0448099046271535 -0.1447877383405904 4.053700202924808 -0.15407269941313828 4.060139899033368 -0.16500271186440607 C 4.068149390558792 -0.17501457627118727 4.076067865135063 -0.18511745762711884 4.084168373609638 -0.19534169491525416 C 4.098154644796081 -0.2124832203389826 4.073185661745234 -0.23651169491525345 4.059533119372352 -0.21903644067796546 Z" fill="#13525f" transform="matrix(1,0,0,1,0,0)" fill-rule="evenodd"></path></g><g clip-path="url(#SvgjsClipPath10016fcd812a-6090-4dd1-b5ef-815828fbc689)"><path d=" M 4.117723288863878 -0.21903644067796546 L 4.087930407507944 -0.17025135593220236 C 4.076937286496736 -0.15592702012582993 4.068387790589758 -0.1398839013075796 4.0626276956435365 -0.12277084745762672 C 4.061051419865743 -0.11613067020045223 4.064103475643607 -0.10925535446327808 4.070085631471218 -0.105970478363858 C 4.076067787298828 -0.10268560226443704 4.08350708579149 -0.1037999850057228 4.088264136321504 -0.108693559322033 C 4.100744483148203 -0.12182610121105686 4.110992769462336 -0.13691157866546028 4.118603119372351 -0.15335254237288048 C 4.1284026108977745 -0.1696445762711864 4.13823244140625 -0.1859972881355929 4.1480015939486234 -0.20219830508474587 C 4.15971244140625 -0.22143322033898286 4.129282441406252 -0.2380589830508475 4.117723288863878 -0.21903644067796546 Z" fill="#13525f" transform="matrix(1,0,0,1,0,0)" fill-rule="evenodd"></path></g><g clip-path="url(#SvgjsClipPath10016fcd812a-6090-4dd1-b5ef-815828fbc689)"><path d=" M 4.1893232888638785 -0.21163372881355835 C 4.179285776363409 -0.19691190695781158 4.17004931962851 -0.18165960011268345 4.161654136321506 -0.16594322033898157 C 4.152297363156341 -0.15207114393823237 4.1462654431597 -0.13622826973018182 4.1440271871689625 -0.11964593220338882 C 4.144375239448744 -0.11370266723721664 4.1481676311099065 -0.1085124279270128 4.153724086813195 -0.10637482673292334 C 4.159280542516486 -0.10423722553883388 4.165573715723349 -0.10554748871745617 4.169815322762184 -0.10972508474576151 C 4.179551745670671 -0.12259507553524554 4.187388482173011 -0.1367972446855072 4.193085322762184 -0.15189627118643945 C 4.201038043001274 -0.16671700750336627 4.209767590428082 -0.18110759554686162 4.219237526152016 -0.19500796610169374 C 4.231615831236759 -0.21330237288135523 4.201640915982522 -0.22965508474576174 4.1893232888638785 -0.21163372881355835 Z" fill="#13525f" transform="matrix(1,0,0,1,0,0)" fill-rule="evenodd"></path></g><g clip-path="url(#SvgjsClipPath10016fcd812a-6090-4dd1-b5ef-815828fbc689)"><path d=" M 4.265201085474047 -0.20380627118643957 C 4.256645492253709 -0.19042677966101568 4.247968543101166 -0.17695627118644053 4.239291593948622 -0.16357677966101664 C 4.2306146447960815 -0.15019728813559274 4.221330915982523 -0.1402461016949147 4.2241221024232 -0.12413610169491388 C 4.226517251063209 -0.11682233851678053 4.234245896502592 -0.11269058861925532 4.241658034626589 -0.1147613559322028 C 4.256402780389299 -0.11867508474576177 4.262379560050318 -0.13469406779660958 4.269994644796082 -0.14667796610169387 C 4.278459221067267 -0.16020915254237134 4.2870148142876054 -0.1736493220338975 4.295479390558793 -0.18715016949152424 C 4.307311593948624 -0.20596033898304955 4.277184983779132 -0.22240406779660904 4.265201085474047 -0.20380627118643957 Z" fill="#13525f" transform="matrix(1,0,0,1,0,0)" fill-rule="evenodd"></path></g><g clip-path="url(#SvgjsClipPath10016fcd812a-6090-4dd1-b5ef-815828fbc689)"><path d=" M 4.337316848185912 -0.18174983050847354 C 4.328529808645377 -0.18635076277181395 4.317677833328333 -0.18320623231619604 4.312711932931674 -0.1746201694915237 C 4.299073182159918 -0.1597152564792812 4.288405179671862 -0.14234371188724118 4.281280746490994 -0.12343830508474407 C 4.280004489622895 -0.11777286137938703 4.282216342258751 -0.11189071435427225 4.286909301263442 -0.10846986361911118 C 4.291602260268132 -0.10504901288395185 4.297879090427127 -0.10474348242236964 4.302882102423199 -0.10769237288135439 C 4.319761170642662 -0.12136878020805694 4.333834216063849 -0.13818225760730818 4.344325153270656 -0.15720559322033714 C 4.349077278017678 -0.16592878357546176 4.345958549877363 -0.17685108256037818 4.337316848185912 -0.18174983050847354 Z" fill="#13525f" transform="matrix(1,0,0,1,0,0)" fill-rule="evenodd"></path></g><g clip-path="url(#SvgjsClipPath10016fcd812a-6090-4dd1-b5ef-815828fbc689)"><path d=" M 4.552723627846929 0.1099898305084746 C 4.535248373609642 0.14164350282485894 4.5177124414062515 0.1732466101694924 4.50011583123676 0.20479915254237324 C 4.482090751868748 0.2324572119583035 4.467116958732498 0.2619877292643745 4.455456848185912 0.2928732203389821 C 4.453948297318966 0.29958977361010364 4.457067610382941 0.3064937820825725 4.463105012923272 0.30980098394033007 C 4.469142415463606 0.31310818579808763 4.476639814425235 0.31201985873824467 4.4814876956435405 0.3071325423728818 C 4.501240667786099 0.28070142848144974 4.517999341944137 0.2521597885219493 4.531456000728284 0.22203169491525376 L 4.583032271914725 0.12661559322033838 C 4.587623349514757 0.11824609226699112 4.584560332190105 0.10773946743054214 4.576190831236758 0.10314838983050867 C 4.5678213302834125 0.09855731223047526 4.557314705446961 0.10162032955512823 4.552723627846928 0.1099898305084746 Z" fill="#13525f" transform="matrix(1,0,0,1,0,0)" fill-rule="evenodd"></path></g><g clip-path="url(#SvgjsClipPath10016fcd812a-6090-4dd1-b5ef-815828fbc689)"><path d=" M 4.609973288863879 0.12549305084745777 C 4.590252949880827 0.16115146892655408 4.569895492253707 0.19642559322033903 4.548900915982522 0.23131542372881359 C 4.526722924961496 0.26083872207317826 4.508373524265469 0.2930521144062045 4.494290746490996 0.32718661016949135 C 4.489891593948625 0.3419616949152541 4.508550068524896 0.3492430508474583 4.518561932931675 0.34050542372881387 C 4.543608522813605 0.3131279398871608 4.5641969237724425 0.28198427220104294 4.579573627846932 0.24821423728813463 C 4.600022102423202 0.21291988700564857 4.619712102423202 0.17726146892655315 4.63864362784693 0.14123898305084748 C 4.642991746826942 0.13332188755768531 4.640098519770795 0.12337896668685672 4.632181424323449 0.1190308476234247 C 4.624264328876101 0.11468272855999262 4.614321407974786 0.11757595551137229 4.609973288827935 0.12549305091290597 Z" fill="#13525f" transform="matrix(1,0,0,1,0,0)" fill-rule="evenodd"></path></g><g clip-path="url(#SvgjsClipPath10016fcd812a-6090-4dd1-b5ef-815828fbc689)"><path d=" M 4.666494814287607 0.1518576271186446 C 4.643194475304556 0.18919480225988744 4.6198435713497545 0.22661288135593272 4.596442102423199 0.2641118644067796 C 4.573206470527435 0.2966328471120331 4.553199208811971 0.331343261545766 4.53670464479608 0.36774983050847476 C 4.531061593948623 0.38291932203389834 4.55357311937235 0.39371999999999974 4.563615322762182 0.3825552542372881 C 4.588345907219869 0.35109082853286433 4.60989114661862 0.3172485421187913 4.627933966829978 0.28152644067796617 C 4.650364588298905 0.2435824858757057 4.67278509677348 0.2056789830508473 4.695195492253708 0.16781593220338925 C 4.70605684818591 0.1494305084745774 4.677598882084216 0.13395762711864406 4.666494814287607 0.1518576271186446 Z" fill="#13525f" transform="matrix(1,0,0,1,0,0)" fill-rule="evenodd"></path></g><g clip-path="url(#SvgjsClipPath10016fcd812a-6090-4dd1-b5ef-815828fbc689)"><path d=" M 4.697986678694387 0.2168437288135598 C 4.676506678694385 0.2501559322033896 4.655087356660489 0.28345802259886976 4.633728712592691 0.3167500000000003 C 4.611045175628858 0.3446163670202669 4.593135267777881 0.3760484090758448 4.580726509202859 0.40976932203389826 C 4.5784207464909965 0.4199632203389837 4.591011424457099 0.43191677966101727 4.600568204118115 0.4243320338983051 C 4.625002823865367 0.39968907004286036 4.645124469584216 0.37111674334932476 4.6600932888638775 0.3398076271186441 C 4.6820991645700945 0.30400762711864393 4.704115153270658 0.26823796610169437 4.726141254965572 0.23249864406779652 C 4.737245322762183 0.21462898305084843 4.708999729541844 0.19942915254237326 4.697986678694387 0.2168437288135598 Z" fill="#13525f" transform="matrix(1,0,0,1,0,0)" fill-rule="evenodd"></path></g><g clip-path="url(#SvgjsClipPath10016fcd812a-6090-4dd1-b5ef-815828fbc689)"><path d=" M 4.703417356660488 0.3177511864406789 C 4.683709768079878 0.34903817167606355 4.667212655370393 0.38223568868726476 4.654177187168964 0.41683830508474673 C 4.652661080077888 0.4235571076961375 4.655768692879022 0.4304691269387344 4.661800567226985 0.4337943910023554 C 4.66783244157495 0.4371196550659773 4.675336105421181 0.4360574421802602 4.680208034626589 0.43118864406779767 C 4.701142121518953 0.40078005919065296 4.718931277607645 0.3683224732528314 4.733301254965573 0.33431627118644125 C 4.743434475304555 0.3148083050847461 4.713641593948623 0.29824322033898376 4.703417356660488 0.3177511864406789 Z" fill="#13525f" transform="matrix(1,0,0,1,0,0)" fill-rule="evenodd"></path></g><g clip-path="url(#SvgjsClipPath10016fcd812a-6090-4dd1-b5ef-815828fbc689)"><path d=" M 4.216901424457098 0.7496569491525429 C 4.181768882084216 0.7996859322033905 4.142419221067269 0.8487440677966107 4.111685831236758 0.9013518644067802 C 4.102584136321504 0.9172191525423732 4.125945153270658 0.935392203389831 4.13789871259269 0.9207384745762717 C 4.177551763440147 0.872196101694916 4.210712271914724 0.8173432203389834 4.245996509202858 0.7657972881355937 C 4.258253458355402 0.7479579661016954 4.229006678694386 0.7322423728813564 4.216901424457098 0.7496569491525429 Z" fill="#13525f" transform="matrix(1,0,0,1,0,0)" fill-rule="evenodd"></path></g><g clip-path="url(#SvgjsClipPath10016fcd812a-6090-4dd1-b5ef-815828fbc689)"><path d=" M 4.283556170219809 0.7498996610169495 C 4.263653797338453 0.7760215254237293 4.244115492253707 0.8023254237288138 4.2252446447960805 0.8291147457627124 C 4.20368239476647 0.853763127144427 4.186152559140806 0.8816654648079381 4.173304305813031 0.9117884745762714 C 4.168601763440149 0.9276557627118649 4.188473797338453 0.9349371186440683 4.199153119372352 0.9259871186440685 C 4.218869462500811 0.9048375474971373 4.235757622956996 0.8812185984533454 4.249394475304554 0.8557220338983058 C 4.268508034626589 0.8278101694915259 4.288016000728283 0.8003533898305086 4.308009390558793 0.7731089830508477 C 4.320478712592691 0.7559977966101701 4.296753627846928 0.7324850847457633 4.283556170219809 0.7498996610169495 Z" fill="#13525f" transform="matrix(1,0,0,1,0,0)" fill-rule="evenodd"></path></g><g clip-path="url(#SvgjsClipPath10016fcd812a-6090-4dd1-b5ef-815828fbc689)"><path d=" M 4.346661254965572 0.7579394915254241 C 4.329105096773481 0.7840310169491529 4.311508486603991 0.8100618644067801 4.293871424457097 0.8360320338983056 C 4.275635969823571 0.858491794121393 4.260408757612417 0.8832347390807078 4.248575322762181 0.9096344067796613 C 4.2438121024232 0.924075762711865 4.262682949880825 0.9308716949152549 4.2720576956435385 0.922619491525424 C 4.291906016687694 0.9013536602715262 4.308850975250339 0.8775531856618615 4.322450746490998 0.8518386440677974 C 4.3398046447960805 0.8256662146892664 4.357067526152013 0.7994735593220341 4.374239390558792 0.7732606779661022 C 4.385495153270658 0.756179830508475 4.357947356660487 0.7413137288135595 4.346661254965572 0.7579394915254241 Z" fill="#13525f" transform="matrix(1,0,0,1,0,0)" fill-rule="evenodd"></path></g><g clip-path="url(#SvgjsClipPath10016fcd812a-6090-4dd1-b5ef-815828fbc689)"><path d=" M 4.416228543101166 0.7451971186440681 C 4.399056678694388 0.7729876271186444 4.381803910332805 0.8008185875706215 4.36447023801642 0.8286900000000001 C 4.346859029839199 0.8497102305135453 4.334393233733633 0.8745483292538854 4.3280634583554045 0.9012305084745771 C 4.3281983999004146 0.9056141850535351 4.330648454643181 0.9095973342371704 4.3345001183272895 0.9116948366648214 C 4.3383517820113955 0.9137923390924716 4.34302699855332 0.913689402472297 4.346782610897773 0.9114244067796615 C 4.367491791141635 0.8932670523363009 4.3837565231555 0.8705981469640729 4.394323797338454 0.8451640677966104 C 4.411283288863878 0.8171308474576271 4.428091085474048 0.7891279661016954 4.444989899033371 0.7611554237288136 C 4.455972610897776 0.742921694915255 4.427393288863877 0.7273274576271193 4.416228543101166 0.7451971186440681 Z" fill="#13525f" transform="matrix(1,0,0,1,0,0)" fill-rule="evenodd"></path></g><g clip-path="url(#SvgjsClipPath10016fcd812a-6090-4dd1-b5ef-815828fbc689)"><path d=" M 4.432520576999471 0.8139755932203394 C 4.426048260615292 0.8259696045197746 4.419090520502297 0.8377107909604529 4.411647356660488 0.8491991525423737 C 4.403413042047919 0.8600427784541032 4.396125137975021 0.8715735013326686 4.3898639668299815 0.883664237288136 C 4.385131085474049 0.8947076271186447 4.396841932931676 0.9112423728813568 4.408947187168964 0.9018676271186445 C 4.430710473559806 0.881375188214536 4.448100104398064 0.8566891366031959 4.4600683736096425 0.8292967796610176 C 4.464299202283362 0.8216896656796746 4.461562182310912 0.8120931170545729 4.453955068374148 0.8078622883006985 C 4.446347954437384 0.8036314595468246 4.436751405783443 0.8063684794181585 4.432520576949414 0.8139755933103436 Z" fill="#13525f" transform="matrix(1,0,0,1,0,0)" fill-rule="evenodd"></path></g><g clip-path="url(#SvgjsClipPath10016fcd812a-6090-4dd1-b5ef-815828fbc689)"><path d=" M 3.6390044753045547 0.6365532203389836 C 3.6337974154457653 0.6478592935657804 3.6291697784238695 0.6594233230603224 3.6251395600503185 0.6712003389830509 C 3.6204370176774385 0.6855506779661023 3.6406731193723516 0.6909206779661027 3.648106170219809 0.6803020338983055 C 3.6545338519060504 0.6710208837364467 3.6604388974266047 0.661388468144603 3.6657937973384542 0.65144966101695 C 3.6754112549655718 0.6338833898305091 3.6470139668299804 0.6187442372881362 3.6390044753045547 0.6365532203389836 Z" fill="#13525f" transform="matrix(1,0,0,1,0,0)" fill-rule="evenodd"></path></g><g clip-path="url(#SvgjsClipPath10016fcd812a-6090-4dd1-b5ef-815828fbc689)"><path d=" M 3.6900649837791315 0.6431671186440681 C 3.6832993905587927 0.6558791525423733 3.6764731193723525 0.6686518644067804 3.6698288820842166 0.6814245762711866 C 3.6618700217045084 0.6930336699065204 3.656016336181932 0.7059528565510882 3.652535661745234 0.7195910169491525 C 3.6509388932263533 0.7262368286712915 3.6539837679667646 0.7331297285514129 3.6599719078960233 0.7364249771515373 C 3.6659600478252825 0.7397202257516622 3.673412371412028 0.738603890631455 3.678172102423201 0.733698644067797 C 3.68742798566175 0.7231725725419051 3.694732662363013 0.7110803018282847 3.699743119372354 0.6979896610169489 L 3.719736509202863 0.6595198305084745 C 3.729839390558794 0.640193898305085 3.7002285431011672 0.6237198305084752 3.6900649837791315 0.6431671186440681 Z" fill="#13525f" transform="matrix(1,0,0,1,0,0)" fill-rule="evenodd"></path></g><g clip-path="url(#SvgjsClipPath10016fcd812a-6090-4dd1-b5ef-815828fbc689)"><path d=" M 3.74334023801642 0.7039057627118651 C 3.7366696197023592 0.6976677904351121 3.7262273205357146 0.6979379663514546 3.719888204118114 0.7045125423728824 C 3.7134866786943856 0.7129164406779668 3.707024475304556 0.721441694915255 3.7006229498808274 0.729936610169492 C 3.6932252111238157 0.7379645614038373 3.687491929265832 0.7473791051742295 3.683754475304556 0.7576361016949158 C 3.682461049602059 0.7632132845932176 3.684628729330379 0.7690232721236725 3.6892591914840445 0.7723902796039814 C 3.6938896536377115 0.7757572870842908 3.700084918968679 0.7760283553183751 3.7049917634401504 0.773078644067797 C 3.713271404728684 0.767265967132224 3.720297627806172 0.7598476787435107 3.725652610897775 0.7512649152542379 C 3.731720407507945 0.743255423728814 3.7377882041181145 0.735306610169492 3.743856000728284 0.7273881355932206 C 3.749916442845325 0.7206542342131292 3.749690497545512 0.7103670776216926 3.74334023801642 0.7039057627118651 Z" fill="#13525f" transform="matrix(1,0,0,1,0,0)" fill-rule="evenodd"></path></g><g clip-path="url(#SvgjsClipPath10016fcd812a-6090-4dd1-b5ef-815828fbc689)"><path d=" M 3.742794136321505 0.7611554237288141 C 3.7409842172765613 0.7675736032070364 3.738534710333115 0.7737939278933044 3.7354824414062504 0.7797228813559329 C 3.7315541554439413 0.78590057891277 3.728769186293251 0.7927345438028388 3.7272605769994707 0.7998983050847461 C 3.7264110854740453 0.8081808474576277 3.7331160007282844 0.8191332203389836 3.7430975261520123 0.8150677966101703 C 3.7595835773052024 0.8049678304871639 3.770765505695203 0.7881005522106899 3.773648882084214 0.768982881355933 C 3.779200915982522 0.7491108474576276 3.7483461702198086 0.7414957627118646 3.742794136321505 0.7611554237288141 Z" fill="#13525f" transform="matrix(1,0,0,1,0,0)" fill-rule="evenodd"></path></g><g clip-path="url(#SvgjsClipPath10016fcd812a-6090-4dd1-b5ef-815828fbc689)"><path d=" M 3.6807812549655727 -0.03242135593220247 C 3.6363953227621817 0.049493898305085327 3.5745948142876065 0.14609322033898453 3.5582117634401484 0.23856644067796628 C 3.5567590336247057 0.24465355963462432 3.5600088989023555 0.2508814795939275 3.565832957293089 0.25317141080915695 C 3.571657015683823 0.2554613420243873 3.578278303933064 0.2531146095592741 3.5813604075079417 0.24766813559322098 C 3.6041005255597787 0.20425440834738184 3.6235518273175167 0.1591959444737463 3.6395505769994694 0.11287203389830508 C 3.6592102380164198 0.06778830508474681 3.6803261702198093 0.02352372881356035 3.7025949837791297 -0.020255423728813032 C 3.7059545130995843 -0.026279118601200663 3.7037947802391877 -0.033885724736238576 3.6977710854021995 -0.03724525412016361 C 3.6917473905652125 -0.0406047835040895 3.6841407844074174 -0.03844505072384197 3.680781254960022 -0.03242135592225151 Z" fill="#00aacc" transform="matrix(1,0,0,1,0,0)" fill-rule="evenodd"></path></g><g clip-path="url(#SvgjsClipPath10016fcd812a-6090-4dd1-b5ef-815828fbc689)"><path d=" M 3.7856024414062506 -0.12034372881355862 C 3.7004105769994715 0.05170864406779757 3.6106982041181146 0.22391271186440825 3.537914983779132 0.4014867796610171 C 3.530026848185911 0.4209340677966108 3.557635322762182 0.437408135593221 3.567161763440149 0.41762711864406865 C 3.6508366786943856 0.24411847457627228 3.724166000728284 0.06539152542372945 3.807052102423199 -0.10857220338982931 C 3.813878373609641 -0.12277084745762672 3.792519729541844 -0.13466372881355887 3.7856024414062506 -0.12034372881355862 Z" fill="#00aacc" transform="matrix(1,0,0,1,0,0)" fill-rule="evenodd"></path></g><g clip-path="url(#SvgjsClipPath10016fcd812a-6090-4dd1-b5ef-815828fbc689)"><path d=" M 3.863148882084218 -0.1597540677966098 C 3.746388249081893 0.04924054275449219 3.6456665360838394 0.26679984851637795 3.5618524414062476 0.49104745762712554 C 3.5546621024232006 0.5112228813559327 3.5887024414062516 0.5249057627118655 3.597076000728286 0.5049123728813565 C 3.689397526152014 0.28492440677966135 3.7777143058130314 0.06599830508474541 3.8873897295418454 -0.14622288135593148 C 3.890711215152218 -0.15286707396835503 3.8882196862407334 -0.16094859579577223 3.881733594619076 -0.16456911752700987 C 3.875247502997416 -0.16818963925824837 3.867060932269439 -0.16606860859378558 3.863148882084216 -0.15975406779660895 Z" fill="#00aacc" transform="matrix(1,0,0,1,0,0)" fill-rule="evenodd"></path></g><g clip-path="url(#SvgjsClipPath10016fcd812a-6090-4dd1-b5ef-815828fbc689)"><path d=" M 3.931108204118114 -0.1944618644067792 C 3.8669918199373225 -0.06121305084745737 3.804857582649187 0.07297627118644084 3.7447054922537077 0.20810610169491622 C 3.6894582041181136 0.33282966101694955 3.622591085474047 0.4607084745762714 3.586669729541843 0.5925010169491535 C 3.5847342092054295 0.6010105857617555 3.5893055695949947 0.609657766153376 3.5974275109680094 0.6128504247136363 C 3.6055494523410236 0.6160430832738962 3.614785534182895 0.612823478213215 3.619162780389302 0.6052737288135601 C 3.685635492253707 0.4811569491525428 3.728838204118116 0.34074813559322126 3.783509051575742 0.210866949152543 C 3.838968712592692 0.07939802259887035 3.8963296165474937 -0.05118096045197687 3.955591763440149 -0.18086999999999948 C 3.9630854922537084 -0.19716203389830456 3.9388446447960823 -0.2107538983050843 3.931108204118114 -0.1944618644067792 Z" fill="#00aacc" transform="matrix(1,0,0,1,0,0)" fill-rule="evenodd"></path></g><g clip-path="url(#SvgjsClipPath10016fcd812a-6090-4dd1-b5ef-815828fbc689)"><path d=" M 3.980560746490997 -0.1713132203389824 C 3.9359017634401505 -0.06785728813559239 3.8780453227621834 0.03581101694915345 3.8442780346265897 0.14318067796610245 C 3.8384832888638787 0.1615964406779677 3.865515322762182 0.17091050847457734 3.8748900685248957 0.15531627118644203 C 3.931381254965575 0.060173220338984756 3.9674239668299798 -0.05311254237288046 4.008745661745234 -0.15556728813559184 C 4.0164821024232 -0.17455949152542316 3.988782610897775 -0.19057847457627097 3.980560746490997 -0.1713132203389824 Z" fill="#00aacc" transform="matrix(1,0,0,1,0,0)" fill-rule="evenodd"></path></g><g clip-path="url(#SvgjsClipPath10016fcd812a-6090-4dd1-b5ef-815828fbc689)"><path d=" M 4.021002610897777 -0.13205457627118652 C 3.9899961702198103 -0.0607883050847457 3.944366339711334 0.01593898305084812 3.9269517634401483 0.09178644067796699 C 3.9253193292874506 0.0992447347952301 3.929337904701926 0.10678593075769377 3.936439097238983 0.1095902233519449 C 3.943540289776038 0.11239451594619687 3.9516271344219285 0.10963380433878211 3.9555310854740475 0.10307254237288233 C 3.9971258312367577 0.03890559322033982 4.019789051575741 -0.04586152542372776 4.048702102423201 -0.11670305084745691 C 4.056438543101166 -0.13527050847457567 4.029194136321505 -0.15101644067796624 4.021002610897777 -0.13205457627118652 Z" fill="#00aacc" transform="matrix(1,0,0,1,0,0)" fill-rule="evenodd"></path></g><g clip-path="url(#SvgjsClipPath10016fcd812a-6090-4dd1-b5ef-815828fbc689)"><path d=" M 4.100035661745235 -0.11636932203389738 C 4.066662780389301 -0.03748796610169447 4.020517187168964 0.039117966101695656 3.992483966829979 0.11997135593220426 C 3.986143119372352 0.13817474576271271 4.012447017677438 0.14539542372881387 4.0218217634401485 0.13146983050847544 C 4.064881220298615 0.057751185425741536 4.10045400183944 -0.020092224237449746 4.128008204118115 -0.10089644067796669 C 4.135835661745235 -0.11973694915254182 4.108257526152013 -0.1354525423728808 4.100035661745235 -0.11636932203389738 Z" fill="#00aacc" transform="matrix(1,0,0,1,0,0)" fill-rule="evenodd"></path></g><g clip-path="url(#SvgjsClipPath10016fcd812a-6090-4dd1-b5ef-815828fbc689)"><path d=" M 4.186683797338455 -0.12410576271186403 C 4.139263966829981 -0.02513999999999994 4.0810131193723524 0.0752213559322038 4.0464873566604895 0.17964813559322085 C 4.044635239421958 0.18808745949851058 4.049195251692417 0.19662058508576358 4.057240678075926 0.19977076612043393 C 4.065286104459438 0.20292094715510334 4.074427778213878 0.1997527070818274 4.078798373609643 0.19229949152542425 C 4.125247356660489 0.09257525423728807 4.167873627846928 -0.009333389830507938 4.211834814287608 -0.11014983050847404 C 4.219237526152014 -0.12692728813559223 4.194753966829981 -0.1409742372881352 4.186683797338455 -0.12410576271186403 Z" fill="#00aacc" transform="matrix(1,0,0,1,0,0)" fill-rule="evenodd"></path></g><g clip-path="url(#SvgjsClipPath10016fcd812a-6090-4dd1-b5ef-815828fbc689)"><path d=" M 4.248302271914726 -0.12498559322033896 C 4.198607017677439 -0.011153728813558361 4.143147356660488 0.1018589830508479 4.100521085474048 0.2184516949152544 C 4.094635322762184 0.23453135593220364 4.120908882084219 0.2447555932203389 4.128372271914727 0.22943440677966087 C 4.181920576999472 0.11875779661016977 4.224031085474048 0.0012245762711869113 4.270783458355405 -0.11260728813559284 C 4.276911932931675 -0.1275340677966099 4.254916170219809 -0.14018542372881326 4.248302271914726 -0.12498559322033896 Z" fill="#00aacc" transform="matrix(1,0,0,1,0,0)" fill-rule="evenodd"></path></g><g clip-path="url(#SvgjsClipPath10016fcd812a-6090-4dd1-b5ef-815828fbc689)"><path d=" M 4.309465661745233 -0.12941508474576174 C 4.242386170219809 0.01014423728813646 4.156193119372352 0.1532835593220349 4.109228373609639 0.30085237288135613 C 4.1042527803893005 0.3169623728813561 4.127431763440148 0.3243347457627125 4.135653627846927 0.3113193220338989 C 4.217568882084215 0.18125610169491546 4.270419390558792 0.023827118644068335 4.332857017677436 -0.11646033898305039 C 4.339986678694387 -0.13205457627118652 4.316989729541844 -0.14522169491525372 4.309465661745233 -0.12941508474576174 Z" fill="#00aacc" transform="matrix(1,0,0,1,0,0)" fill-rule="evenodd"></path></g><g clip-path="url(#SvgjsClipPath10016fcd812a-6090-4dd1-b5ef-815828fbc689)"><path d=" M 4.383583797338454 -0.15453576271186337 C 4.2232726108977765 0.18865881355932257 4.055740746490997 0.5284554237288142 3.880988204118117 0.8648540677966108 C 3.869156000728286 0.8877296610169498 3.9042582041181166 0.9071466101694918 3.9160904075079457 0.8842406779661021 C 4.0890428368864775 0.5467902824858752 4.252873345361053 0.2049710734463278 4.4075819329316746 -0.14121694915254177 C 4.414681254965574 -0.1572662711864403 4.391138204118115 -0.17052440677966046 4.383583797338454 -0.15453576271186337 Z" fill="#00aacc" transform="matrix(1,0,0,1,0,0)" fill-rule="evenodd"></path></g><g clip-path="url(#SvgjsClipPath10016fcd812a-6090-4dd1-b5ef-815828fbc689)"><path d=" M 4.438709729541845 -0.13663576271186373 C 4.2803402380164215 0.21555937853107426 4.105779842536195 0.5598057062146897 3.9150285431011667 0.8961032203389836 C 3.910137147048104 0.9057767078020522 3.913763865019115 0.9175864730542052 3.923241512403177 0.9228473014214342 C 3.9327191597872395 0.9281081297886631 3.9446600084087295 0.9249395697449121 3.9502824414062494 0.9156718644067796 C 4.139188015170104 0.5786640205485077 4.310756009615194 0.23222689454039536 4.464315831236756 -0.12228542372880928 C 4.47183989903337 -0.1394876271186435 4.446355153270657 -0.15389864406779674 4.438709729541845 -0.13663576271186373 Z" fill="#00aacc" transform="matrix(1,0,0,1,0,0)" fill-rule="evenodd"></path></g><g clip-path="url(#SvgjsClipPath10016fcd812a-6090-4dd1-b5ef-815828fbc689)"><path d=" M 4.478605492253709 -0.11151508474576208 C 4.4020905769994725 0.06477463276836215 4.321732723892127 0.2393653672316396 4.237531932931675 0.41225711864406867 C 4.153371593948623 0.5847038983050858 4.05549803462659 0.7520537288135603 3.976191932931676 0.9265635593220349 C 3.97157926140871 0.9359765484163232 3.9751632170482547 0.9473529877778049 3.984338316354939 0.9524223718607565 C 3.993513415661621 0.957491755943708 4.005052138115279 0.9544708298093629 4.010566000728286 0.9455557627118658 C 4.110988034626589 0.7831511864406793 4.189566000728284 0.6032713559322046 4.270571085474048 0.4305211864406795 C 4.352243627846929 0.25619338983050954 4.429860859485347 0.08008570621469047 4.503422780389302 -0.09780186440677777 C 4.510340068524895 -0.11442762711864327 4.485795831236759 -0.12841389830508396 4.478605492253709 -0.11151508474576208 Z" fill="#00aacc" transform="matrix(1,0,0,1,0,0)" fill-rule="evenodd"></path></g><g clip-path="url(#SvgjsClipPath10016fcd812a-6090-4dd1-b5ef-815828fbc689)"><path d=" M 4.528270407507946 -0.07902203389830403 C 4.457641254965573 0.09028971751412562 4.382805096773483 0.257781129943504 4.303761932931676 0.4234522033898319 C 4.224637865135066 0.5891333898305099 4.132559051575743 0.7486557627118652 4.053586678694389 0.9142155932203404 C 4.048755494015433 0.9238974215149003 4.052408720551487 0.9356666671892366 4.061873081651722 0.9409110940875625 C 4.071337442751956 0.9461555209858883 4.083253353730418 0.9430135035734619 4.088901254965575 0.9337842372881369 C 4.281644814287608 0.6239928813559333 4.425663966829982 0.2715145762711876 4.55772956005032 -0.06740220338982914 C 4.564100746490997 -0.08420999999999976 4.53524837360964 -0.09564779661016867 4.528270407507946 -0.07902203389830403 Z" fill="#00aacc" transform="matrix(1,0,0,1,0,0)" fill-rule="evenodd"></path></g><g clip-path="url(#SvgjsClipPath10016fcd812a-6090-4dd1-b5ef-815828fbc689)"><path d=" M 4.570411254965572 -0.026565932203389375 C 4.561177308970846 -0.002216269099659246 4.550717212731881 0.021650571979954514 4.539071085474047 0.044943050847457144 C 4.5274151005382715 0.06216158451158588 4.519127918304706 0.08143314369324672 4.5146482041181155 0.10173762711864504 C 4.514784267254524 0.1064166442003226 4.517394239510756 0.11067163845738837 4.521503425598548 0.11291358041106031 C 4.525612611686336 0.11515552236473398 4.5306031245508755 0.11504729734529168 4.534611254965571 0.11262932203389941 C 4.5518579435648405 0.09608967706159866 4.564660461014892 0.07547209394725168 4.571837187168962 0.05267949152542467 C 4.58257718716896 0.02922745762711987 4.592012610897775 0.005259661016950412 4.600689560050318 -0.01895084745762557 C 4.607546170219811 -0.03806440677966058 4.57741956005032 -0.04507271186440584 4.570411254965572 -0.026565932203389375 Z" fill="#00aacc" transform="matrix(1,0,0,1,0,0)" fill-rule="evenodd"></path></g><g clip-path="url(#SvgjsClipPath10016fcd812a-6090-4dd1-b5ef-815828fbc689)"><path d=" M 4.607424814287606 0.027255423728814177 C 4.601804913564635 0.045322949105749466 4.593223607428037 0.06233177453061867 4.582031085474047 0.07758779661016957 C 4.577267865135066 0.08411067796610178 4.569592102423201 0.09078525423728834 4.569895492253709 0.09958355932203422 C 4.569761974874601 0.10650474083254746 4.574040718804692 0.11274609949980124 4.580544475304556 0.11511711864406804 C 4.597625322762183 0.12085118644067744 4.608790068524895 0.0996442372881356 4.616132102423201 0.08781203389830489 C 4.626303219614508 0.07140806057219917 4.634097005387658 0.053644766391981125 4.639280746490998 0.03505254237288141 C 4.64516650920286 0.014816440677966614 4.61361396682998 0.007231694915254383 4.607424814287606 0.027255423728814177 Z" fill="#00aacc" transform="matrix(1,0,0,1,0,0)" fill-rule="evenodd"></path></g><g clip-path="url(#SvgjsClipPath10016fcd812a-6090-4dd1-b5ef-815828fbc689)"><path d=" M 4.460402102423199 0.25525288135593316 C 4.385889560050319 0.4162618644067797 4.3056732888638765 0.5742672881355942 4.226063797338454 0.7326974576271191 C 4.215839560050319 0.7530852542372888 4.246481932931674 0.7702874576271195 4.257191593948625 0.7498996610169495 C 4.339106848185912 0.592501016949153 4.412800238016421 0.4307638983050851 4.4836114244570995 0.2680255932203395 C 4.490286000728285 0.25264372881356 4.467592441406252 0.23965864406779708 4.460402102423199 0.25525288135593316 Z" fill="#00aacc" transform="matrix(1,0,0,1,0,0)" fill-rule="evenodd"></path></g><g clip-path="url(#SvgjsClipPath10016fcd812a-6090-4dd1-b5ef-815828fbc689)"><path d=" M 4.481973119372352 0.3394132203389839 C 4.422599729541845 0.46795949152542404 4.355216848185913 0.5929561016949159 4.296753627846928 0.7218664406779667 C 4.287409221067268 0.7425576271186447 4.316747017677437 0.7596081355932209 4.328033119372353 0.7391596610169495 C 4.396629560050318 0.6158316949152546 4.4519375261520135 0.48325033898305136 4.508398373609642 0.35403661016949217 C 4.516134814287606 0.33647033898305123 4.49013430581303 0.3216649152542379 4.481973119372352 0.3394132203389839 Z" fill="#00aacc" transform="matrix(1,0,0,1,0,0)" fill-rule="evenodd"></path></g><g clip-path="url(#SvgjsClipPath10016fcd812a-6090-4dd1-b5ef-815828fbc689)"><path d=" M 4.522506000728285 0.38692406779661115 C 4.469109390558794 0.5004222033898322 4.408219051575744 0.6091571186440689 4.350150238016422 0.7202281355932214 C 4.346139572511121 0.7283132541629744 4.3492167306420795 0.7381227526395577 4.357126832147749 0.7424684256889685 C 4.3650369336534185 0.7468140987383795 4.374966670709008 0.7441503636667528 4.379639729541845 0.7364291525423743 C 4.442576779929433 0.6282070871636735 4.499114414915129 0.516387983961356 4.548961593948626 0.4015474576271212 C 4.556880068524895 0.38389016949152543 4.5308492210672675 0.3691454237288143 4.522506000728285 0.38692406779661115 Z" fill="#00aacc" transform="matrix(1,0,0,1,0,0)" fill-rule="evenodd"></path></g><g clip-path="url(#SvgjsClipPath10016fcd812a-6090-4dd1-b5ef-815828fbc689)"><path d=" M 4.5686212549655725 0.42894355932203476 C 4.521444136321506 0.5311555932203396 4.468229560050319 0.6293628813559324 4.4120114244570985 0.7267813559322043 C 4.399875831236761 0.7480186440677976 4.432975661745234 0.7662220338983057 4.4453843058130325 0.7451364406779671 C 4.500985651858144 0.6475258933219281 4.551092644218249 0.5468865005404437 4.595471254965573 0.4436883050847501 C 4.603116678694387 0.42594000000000054 4.5768127803893 0.41101322033898346 4.5686212549655725 0.42894355932203476 Z" fill="#00aacc" transform="matrix(1,0,0,1,0,0)" fill-rule="evenodd"></path></g><g clip-path="url(#SvgjsClipPath10016fcd812a-6090-4dd1-b5ef-815828fbc689)"><path d=" M 4.629268882084215 0.44805711864406794 C 4.5638883736096405 0.5613428813559332 4.486675661745234 0.677419830508475 4.439771593948622 0.7995645762711867 C 4.432975661745234 0.8174038983050849 4.459886339711336 0.8252616949152545 4.469109390558792 0.8111237288135598 C 4.540193627846928 0.702358474576272 4.592558712592691 0.5766944067796619 4.655663797338453 0.4627108474576278 C 4.658754130758563 0.45555351886455253 4.6559161294281575 0.44721905312500665 4.649100096698521 0.4434349797820015 C 4.642284063968888 0.4396509064389973 4.633709478297419 0.4416494187050909 4.629268882084215 0.44805711864406794 Z" fill="#00aacc" transform="matrix(1,0,0,1,0,0)" fill-rule="evenodd"></path></g><g clip-path="url(#SvgjsClipPath10016fcd812a-6090-4dd1-b5ef-815828fbc689)"><path d=" M 4.691221085474048 0.42815474576271195 C 4.664947526152013 0.489439491525424 4.636883966829979 0.5497837288135597 4.60612023801642 0.6089144067796614 C 4.575356509202861 0.6680450847457626 4.535824814287606 0.7236261016949157 4.5108254922537085 0.7846377966101696 C 4.504757695643539 0.7994432203389834 4.523112780389301 0.817191525423729 4.535369729541845 0.8028411864406781 C 4.618862610897778 0.7034506779661018 4.6703175261520125 0.5626474576271185 4.7185565092028625 0.44338491525423696 C 4.7260198990333695 0.42499949152542416 4.69920023801642 0.40949627118644194 4.691221085474048 0.42815474576271195 Z" fill="#00aacc" transform="matrix(1,0,0,1,0,0)" fill-rule="evenodd"></path></g><g clip-path="url(#SvgjsClipPath10016fcd812a-6090-4dd1-b5ef-815828fbc689)"><path d=" M 4.01366057699947 0.4911688135593223 C 3.9782853227621824 0.5567616949152543 3.9434865092028613 0.6226883050847458 3.909931593948623 0.6892823728813561 C 3.875682250489488 0.7466165030133686 3.848618742209794 0.807947548320398 3.829351254965571 0.8718927118644066 C 3.826560068524895 0.8840283050847462 3.843853288863878 0.8965886440677966 3.852560576999471 0.8848171186440681 C 3.888025087169922 0.8285470440565541 3.917851199032015 0.76891514476975 3.9416054922537067 0.7067879661016956 C 3.9732187125926908 0.6391927118644076 4.005731989428847 0.572032316384181 4.039145322762181 0.5053067796610174 C 4.042535956055808 0.49833348161863966 4.039881121049992 0.4899261372335596 4.0331006919543455 0.4861646134733556 C 4.026320262858699 0.4824030897131516 4.017782057740799 0.48460096183912227 4.01366057699947 0.4911688135593223 Z" fill="#00aacc" transform="matrix(1,0,0,1,0,0)" fill-rule="evenodd"></path></g><g clip-path="url(#SvgjsClipPath10016fcd812a-6090-4dd1-b5ef-815828fbc689)"><path d=" M 3.94630803462659 0.4924430508474582 C 3.8886639668299807 0.5932594915254238 3.824132949880828 0.6992032203389834 3.7874834583554033 0.8097888135593223 C 3.781779729541844 0.8269303389830513 3.8078712549655744 0.8361533898305087 3.8163661702198093 0.821105254237289 C 3.8736765092028604 0.7197123728813567 3.916788204118115 0.6097942372881363 3.973218712592692 0.5073394915254246 C 3.977144413695992 0.49993003338352837 3.974412389706244 0.4907414989312491 3.967076192418658 0.4866805374112889 C 3.9597399951310734 0.48261957589132964 3.9505028898870944 0.48518258333824227 3.9463080346265884 0.4924430508474582 Z" fill="#00aacc" transform="matrix(1,0,0,1,0,0)" fill-rule="evenodd"></path></g><g clip-path="url(#SvgjsClipPath10016fcd812a-6090-4dd1-b5ef-815828fbc689)"><path d=" M 3.88793583123676 0.490501355932204 C 3.8418509159825223 0.5714457627118652 3.771676848185913 0.6624020338983054 3.7542622719147256 0.7549662711864411 C 3.7527613431415587 0.7617955491531123 3.756444814344731 0.768703304310715 3.762951961125555 0.7712623794368154 C 3.7694591079063757 0.7738214545629156 3.776861290717842 0.7712733707637389 3.7804144753045574 0.7652511864406781 C 3.8069914244570993 0.723686779661017 3.8233441363215075 0.6742342372881361 3.8464624414062527 0.630424745762712 C 3.868609899033372 0.5883749152542378 3.8914854922537097 0.5467498305084748 3.914088034626592 0.5049730508474578 C 3.91768245962237 0.49780043614556 3.9149776972447863 0.4890693752836256 3.907957934872941 0.48518488960918205 C 3.900938172501092 0.4813004039347367 3.8921038900568363 0.4836461696922423 3.88793583123676 0.49050135593220323 Z" fill="#00aacc" transform="matrix(1,0,0,1,0,0)" fill-rule="evenodd"></path></g><g clip-path="url(#SvgjsClipPath10016fcd812a-6090-4dd1-b5ef-815828fbc689)"><path d=" M 3.8291388820842167 0.4833110169491528 C 3.810146678694385 0.5156725988700575 3.791245492253707 0.5479229378531072 3.7724353227621816 0.5800620338983055 C 3.7531033619364274 0.6080188494026599 3.73691561353617 0.6380236702903762 3.7241660007282826 0.6695316949152552 C 3.7227902083643 0.675726915439643 3.725665106450752 0.682087252158953 3.7312245140006643 0.6851477340929952 C 3.7367839215505745 0.688208216027037 3.743695704159335 0.6872354964581213 3.748194475304554 0.6827594915254244 C 3.768933740155799 0.6557875625531078 3.786646739987353 0.626618596144686 3.801014644796079 0.5957776271186449 C 3.8192180346265867 0.5632744632768364 3.837471989428847 0.5307207344632774 3.855776509202858 0.498116440677967 C 3.859864913965687 0.4907606630754263 3.85721618499136 0.4814833202343536 3.849860407431898 0.47739491539401724 C 3.842504629872434 0.47330651055368167 3.833227287003454 0.47595523943025797 3.8291388820856116 0.4833110169466416 Z" fill="#00aacc" transform="matrix(1,0,0,1,0,0)" fill-rule="evenodd"></path></g><g clip-path="url(#SvgjsClipPath10016fcd812a-6090-4dd1-b5ef-815828fbc689)"><path d=" M 3.773830915982521 0.45573288135593326 C 3.743947017677437 0.5194447457627125 3.7050827803893016 0.5806384745762716 3.6781721024231993 0.6453515254237295 C 3.6746657983803477 0.6525099582800578 3.677376113429834 0.6611605127352962 3.684340233598901 0.6650384450800206 C 3.6913043537679675 0.6689163774247443 3.700085478897948 0.666664768777097 3.7043243058130293 0.6599142372881373 C 3.7429346304961997 0.6002142515997861 3.774120683681287 0.536028647200554 3.797191932931674 0.46877864406779757 C 3.803168712592691 0.4530933898305093 3.781385322762184 0.43980491525423837 3.773830915982521 0.45573288135593326 Z" fill="#00aacc" transform="matrix(1,0,0,1,0,0)" fill-rule="evenodd"></path></g><g clip-path="url(#SvgjsClipPath10016fcd812a-6090-4dd1-b5ef-815828fbc689)"><path d=" M 3.747193288863878 0.3673250847457631 C 3.7060983616747327 0.44377225000580645 3.66985262158473 0.522728584023508 3.6386707464909978 0.6037264406779674 C 3.632208543101166 0.6237198305084752 3.6615463397113373 0.6334889830508477 3.671649221067268 0.6167115254237291 C 3.7116415124310342 0.5413973959553711 3.7468439305226506 0.4636359231761352 3.777046848185912 0.3838901694915202 C 3.785936170219811 0.3639574576271195 3.7565983736096418 0.3472103389830521 3.747193288863878 0.3673250847457631 Z" fill="#00aacc" transform="matrix(1,0,0,1,0,0)" fill-rule="evenodd"></path></g><g clip-path="url(#SvgjsClipPath10016fcd812a-6090-4dd1-b5ef-815828fbc689)"><path d=" M 4.560672441406251 -0.07962881355932172 C 4.347328712592692 -0.27507254237288126 3.9990068481859122 -0.3095072881355926 3.764274136321505 -0.1293240677966096 C 3.7604256993416803 -0.12642743971833942 3.7576762512435935 -0.12230861669202406 3.7564770176774354 -0.11764355932203416 C 3.564400915982521 0.017516610169491964 3.5032375261520143 0.30039728813559285 3.5499292210672673 0.5202335593220344 C 3.58039092960919 0.6687472355013016 3.671018383353751 0.7980047649723967 3.8002561702198103 0.8772627118644076 C 3.802512339699574 0.8811272084394122 3.806558378483418 0.8836004208791144 3.8110265092028603 0.8838462711864403 C 3.885812321488057 0.9272805676882743 3.9688209414074525 0.9546711391852012 4.054769899033369 0.9642749152542371 C 4.178279899033369 0.9785645762711868 4.321449560050318 0.9690988135593221 4.431853119372351 0.9076016949152543 C 4.543225542608775 0.8389421570582314 4.633024498876533 0.7403220645876113 4.690978373609639 0.6230220338983053 C 4.814795712206048 0.3867552575018799 4.760895616675095 0.09644683599098347 4.560520746490997 -0.07962881355932083 Z M 4.577753288863877 0.4510910169491529 C 4.52199023801642 0.535312033898306 4.4582176956435395 0.6222332203389834 4.430487865135065 0.7205315254237289 C 4.395812127509922 0.7198054515383794 4.361126874491119 0.7214170690807494 4.326667865135064 0.7253554237288135 C 4.280673966829979 0.7283893220338984 4.236257695643538 0.7227462711864412 4.189869390558793 0.727934237288136 C 4.162746339711335 0.6857327118644069 4.13395464479608 0.6445627118644067 4.1071653227621825 0.6022094915254237 C 4.091049467145609 0.5687124939415286 4.073081211496502 0.5361387001605118 4.0533439668299795 0.5046393220338966 C 4.0874449837791325 0.43743847457627083 4.119816678694384 0.3693577966101693 4.152825492253706 0.3017322033898311 C 4.247907865135064 0.3027940677966102 4.355065153270656 0.3135037288135595 4.448236170219809 0.2913866101694912 C 4.449239626618903 0.2925006446718389 4.450346946727686 0.29351653467989836 4.45154311937235 0.29442050847457524 C 4.466434708378576 0.32221585038539546 4.485438982075748 0.3476026142801133 4.507912949880828 0.3697218644067787 C 4.5213112820270105 0.3835943148688151 4.533199916856038 0.3988491927503711 4.543379221067266 0.4152303389830495 C 4.552784305813029 0.4314313559322034 4.566861593948623 0.43795423728813554 4.5777532888638754 0.45127305084745717 Z M 4.464801254965572 0.7298759322033896 C 4.487525153270657 0.6870069491525423 4.502057526152012 0.6399208474576272 4.526480407507946 0.5975372881355935 C 4.5534821024231995 0.5506635593220347 4.583274983779132 0.5053977966101695 4.612066678694387 0.4595555932203391 C 4.613239036572588 0.4578070374872546 4.614034609192929 0.45583360410432916 4.6144027803893035 0.45376084745762835 C 4.646762741973838 0.4525084468405818 4.678747443740539 0.44637131186775736 4.709272780389303 0.43555745762711817 C 4.704986578835033 0.46202499397784214 4.69859510638379 0.48810828869553924 4.690159221067269 0.5135589830508461 C 4.651042160994795 0.6246362289625543 4.584762667375304 0.724164979176685 4.4973549837791325 0.8030838983050854 C 4.491287187168963 0.8089393220338985 4.484794644796083 0.8144610169491531 4.478302102423202 0.819831016949153 C 4.4773009159825214 0.7965610169491533 4.474084983779132 0.7730786440677975 4.473023119372353 0.750476101694916 C 4.472944719683021 0.7458338949890096 4.470932267446397 0.7414350922860038 4.467471085474049 0.7383405084745769 C 4.467394532094037 0.7353241092236931 4.466469200359471 0.7323903870197863 4.464801254965572 0.7298759322033901 Z M 4.443715661745234 0.25513152542372863 C 4.344658882084217 0.26353542372881356 4.2454200685248935 0.2644152542372884 4.145968882084216 0.2685110169491526 C 4.138990915982521 0.24093288135593294 4.105162949880825 0.21572118644067834 4.089052949880828 0.1976088135593228 C 4.058926339711336 0.16350779661017023 4.029558204118115 0.12782915254237287 3.9965190515757416 0.09676203389830512 C 4.011316366867483 0.06994547774227777 4.024694082549549 0.042369762524815835 4.036596848185911 0.014148983050847552 C 4.051766339711335 -0.01816203389830537 4.061808543101167 -0.07040576271186505 4.091783458355404 -0.09000474576271142 C 4.123457356660489 -0.11069593220338941 4.181040746490997 -0.10116949152542307 4.218661085474047 -0.102140338983051 C 4.259841198468399 -0.10311118644067807 4.300960633496648 -0.10424384180791008 4.342019390558794 -0.10553830508474529 C 4.3730258312367605 -0.07283288135593227 4.403971593948625 -0.040178022598870156 4.434856678694387 -0.007573728813558944 C 4.4631677473228795 0.018561303099879023 4.490094856917344 0.04615678021342623 4.515528034626587 0.07509999999999573 C 4.515118179363788 0.07559690481553338 4.514762230241959 0.07613591348573151 4.514466170219811 0.0767079661016955 C 4.498089729204473 0.10990540959455203 4.484884237688936 0.14457490385802857 4.475025492253708 0.18025491525423853 C 4.462725825557626 0.20437234503918195 4.452259628064885 0.22938168904799827 4.443715661745232 0.2550708474576272 Z M 4.65262989903337 0.11029322033898348 C 4.619743110391498 0.101178852220284 4.587762963330206 0.0890631597959825 4.557092441406251 0.0740988135593223 C 4.556303627846928 0.07373474576271205 4.555605831236759 0.07355271186440693 4.554877695643539 0.07327966101694966 C 4.530440664987965 0.03848694649994927 4.502112931909589 0.006596616735468963 4.4704443058130305 -0.02177237288135636 C 4.43782989903337 -0.05641949152542347 4.405185153270657 -0.0912789830508473 4.372692102423201 -0.12598677966101673 C 4.37307523691459 -0.1274757881805898 4.373298980200564 -0.1290013105849667 4.373359560050321 -0.13053762711864494 C 4.374057356660489 -0.1374245762711865 4.374391085474048 -0.14422050847457596 4.37484617021981 -0.15107711864406767 C 4.404283350599648 -0.13772082820226322 4.43256477273792 -0.1219514238237647 4.459400915982521 -0.10393033898305071 C 4.54042605633629 -0.049474806953565376 4.606790520307084 0.024100240949996354 4.652629899033368 0.11029322033898348 Z M 4.544198373609641 0.10307254237288149 C 4.584279389764095 0.1257094852562996 4.627543238172284 0.14217634008778524 4.672532271914726 0.15191830508474602 C 4.705605135870979 0.22816941645022204 4.719820569476276 0.31126622270080395 4.713975322762183 0.3941750847457648 C 4.680213471729753 0.4083830827462883 4.644603381689392 0.4177197500718457 4.608213627846929 0.4219049152542379 C 4.604597379074377 0.42207866293439356 4.601154261688025 0.42350525051191634 4.598474814287607 0.42594000000000054 C 4.590424345509139 0.42025968481120046 4.582982141953232 0.4137630071169044 4.576266678694385 0.40655338983050915 C 4.567164983779131 0.3951762711864416 4.562674814287606 0.3806438983050847 4.552602271914725 0.3692971186440679 C 4.524898932613439 0.3447098779606448 4.500840966845397 0.3163000253912486 4.4811539668299805 0.28492440677966213 C 4.481522178263631 0.28305721244892745 4.481654681852996 0.28115119927882304 4.481548373609638 0.27925101694915244 C 4.4798797295418415 0.24806254237288106 4.50308905157574 0.21899779661016977 4.5131009159825215 0.1899330508474576 C 4.521205820062745 0.16021921477044715 4.531602808918882 0.13117864979959698 4.544198373609639 0.10307254237288149 Z M 3.775833288863877 0.18165050847457642 C 3.7268661702198105 0.15279813559322097 3.6795980346265886 0.12173101694915323 3.6318748142876056 0.09096728813559346 C 3.665450925617826 0.014786160395556303 3.719798707440658 -0.05040173809575002 3.788697017677435 -0.0971344067796604 C 3.839922181367322 -0.1287195704110186 3.894872069940792 -0.15382001098157816 3.952284814287605 -0.1718593220338978 C 3.9728269899620052 -0.16274044097689286 3.9921838070510938 -0.15115691411884372 4.009928882084215 -0.13736389830508422 C 4.022615269215815 -0.12886703286155388 4.034773294384894 -0.11960667035777184 4.046335661745232 -0.10963406779661022 C 4.033721100043187 -0.0826803095132968 4.02276846714655 -0.054979570993961835 4.013539221067264 -0.026687288135592208 C 3.995335831236756 0.014270338983051245 3.9713983736096377 0.054044745762712676 3.9560771871689586 0.09630694915254273 C 3.8960060007282804 0.12434016949152643 3.8352370176774344 0.15158457627118732 3.775833288863875 0.18158983050847588 Z M 3.6168266786943857 0.12731338983050905 C 3.663245322762182 0.15844118644067906 3.712000068524895 0.18656542372881402 3.7606941363215056 0.21402220338983075 C 3.7527444341440805 0.2985296030275707 3.752206392481437 0.383570640913776 3.75908617021981 0.4681718644067816 L 3.7586007464909974 0.4690516949152548 C 3.746040407507946 0.49353525423728806 3.73293396682998 0.5175940677966105 3.718796000728285 0.5413798305084748 C 3.704043146166111 0.5627115509935204 3.6904125532325116 0.5847979723814704 3.6779597295418434 0.6075491525423725 C 3.6578374838891823 0.6011259518156209 3.637156707853699 0.5966058411398893 3.6161895600503184 0.5940483050847463 C 3.616007526152014 0.593289830508475 3.6156737973384536 0.5927133898305089 3.6154614244570977 0.5918942372881363 C 3.5620635883407132 0.4415607264233058 3.5625139754656865 0.27735172535800257 3.616735661745233 0.12731338983050905 Z M 3.7082987125926907 0.626480677966102 C 3.7236088881328078 0.6068392557552394 3.736989611127972 0.5857674110384844 3.7482551532706574 0.5635576271186441 C 3.7617863397113362 0.5403786440677962 3.7743163397113344 0.5166838983050849 3.7863305769994713 0.49274644067796614 C 3.861839174152724 0.5043657477780943 3.938224660505761 0.5093098907677183 4.014601085474045 0.5075215254237287 C 4.01505617021981 0.5078249152542368 4.015329221067267 0.5082193220338977 4.015693288863877 0.5084013559322028 C 4.047852610897776 0.5354940677966101 4.064235661745234 0.5967484745762711 4.08705057699947 0.6327911864406774 C 4.113233119372352 0.6738094915254236 4.139658373609639 0.7149188135593215 4.167115153270656 0.755087627118644 C 4.150974814287607 0.7748686440677963 4.134743458355402 0.7945283050847454 4.119270576999471 0.814703728813559 C 4.107029289599643 0.8288406011762153 4.097495606651996 0.8451105973177195 4.091146339711335 0.8626999999999994 C 4.004498204118114 0.851019491525423 3.917728712592689 0.8401884745762707 3.831292949880825 0.827810169491525 C 3.8263219582372265 0.8269161467064601 3.8212119229481187 0.8282966355427337 3.8173673566604873 0.8315722033898298 C 3.789030746490994 0.7617925423728809 3.7587524414062483 0.6826381355932193 3.708511085474045 0.6295752542372874 C 3.7085809454828973 0.6285589998347677 3.708509473176987 0.6275379668932015 3.708298712592689 0.626541355932203 Z M 3.8797139668299785 0.8699206779661022 C 3.948007017677435 0.8815101694915259 4.0169371871689625 0.8933423728813568 4.086019051575741 0.898196610169492 C 4.088788543762023 0.9043003237397051 4.090472301446345 0.9108402849891779 4.09099464479608 0.9175225423728821 C 4.091190697326757 0.9194373468673598 4.091251526054883 0.9213635899246599 4.091176678694384 0.9232869491525435 C 4.018075200661885 0.9180398694540359 3.946466354320591 0.8999759140956058 3.8796229498808237 0.8699206779661026 Z M 4.128493627846928 0.9252589830508477 C 4.128467684912174 0.9205101199606796 4.128051652936988 0.9157714142920776 4.127249729541841 0.9110906779660999 C 4.126251485389965 0.9042342358314321 4.124532883469664 0.8975021975400692 4.122122441406249 0.8910062711864408 C 4.123830446747895 0.8879453297366633 4.124640165580207 0.8844645903406256 4.124458543101165 0.8809640677966102 C 4.133625114756223 0.8624379690023729 4.144108856300295 0.8445933025443766 4.155829051575742 0.8275674576271193 C 4.170300746490994 0.8091820338983051 4.184893797338454 0.7909786440677966 4.199426170219809 0.7726538983050848 C 4.203374151816185 0.7702580846322202 4.206119902075189 0.7662993523310826 4.206980576999471 0.761762203389831 C 4.245025661745234 0.7605486440677964 4.282190915982521 0.7650388135593225 4.320236000728285 0.7641286440677968 C 4.359676678694387 0.7631881355932204 4.399117356660489 0.7597294915254242 4.438558034626589 0.7580608474576274 C 4.437911132370384 0.7876611529358746 4.439025529792745 0.8172737317137251 4.441895322762185 0.8467416949152573 C 4.352118980665166 0.9021767138117525 4.247812584745705 0.929489521090096 4.142388882084216 0.9251679661016945 L 4.128523966829979 0.9251679661016945 Z M 4.33840905157574 -0.16615559322033827 C 4.33840905157574 -0.1621205084745756 4.33840905157574 -0.15814610169491436 4.33840905157574 -0.15401999999999955 C 4.33840905157574 -0.1493781355932201 4.338014644796079 -0.14491830508474488 4.337802271914724 -0.14036745762711839 C 4.289259899033368 -0.13953819209039525 4.240616396208511 -0.13864824858757063 4.191871763440147 -0.13769762711864375 C 4.16301939055879 -0.13706050847457624 4.134227695643537 -0.13681779661016968 4.105162949880825 -0.13593796610169478 C 4.094999077452284 -0.13615630029427878 4.08483810427621 -0.13538406633289707 4.074823966829978 -0.13363220338983126 C 4.059359001326823 -0.14817793451994646 4.042784209707537 -0.16149660122504006 4.025250068524892 -0.17346728813559326 C 4.019819390558792 -0.17729000000000006 4.013963966829977 -0.1818105084745767 4.007774814287603 -0.18623999999999946 C 4.117592874836692 -0.21149805668882554 4.23237126986308 -0.2044705929948115 4.338287695643537 -0.16600389830508472 Z M 3.96781837360964 0.12346033898305064 C 3.970941481364612 0.12354701106785537 3.9740463804901554 0.1229570802340027 3.9769200685248944 0.12173101694915323 C 3.9990371871689603 0.14412118644067884 4.01939464479608 0.16842271186440694 4.040237526152012 0.1922084745762721 C 4.051918034626588 0.20589135593220398 4.063841254965572 0.21951355932203442 4.075673458355403 0.23304474576271278 C 4.084775153270657 0.24348135593220388 4.114750068524894 0.2687840677966107 4.116115322762182 0.28270966101694994 C 4.116449053640777 0.2856313502379455 4.117433970629574 0.28844095554282667 4.118997526152015 0.2909315254237288 C 4.0886585431011655 0.3516094915254241 4.057985831236758 0.4122874576271194 4.02825362784693 0.4734205084745762 C 4.026786299848402 0.4731143118411194 4.025292640408036 0.4729517366639372 4.023793797338458 0.4729350847457622 C 3.9444876956435406 0.4763937288135597 3.8661827803893027 0.4614972881355933 3.7871497295418446 0.45734084745762693 C 3.7918522719147245 0.37478847457627074 3.7863912549655745 0.2909315254237279 3.789667865135067 0.20801508474576325 C 3.8497087125926917 0.18131677966101772 3.908566339711337 0.15191830508474602 3.9677576956435403 0.12346033898305064 Z M 3.682965661745232 0.6460493220338981 C 3.683423218783641 0.646657353779576 3.683919801655825 0.6472350114064015 3.6844522719147235 0.6477786440677972 C 3.710780926786491 0.681113123744413 3.731725939883228 0.7183657643402226 3.7465258312367573 0.7581822033898302 C 3.7530487125926886 0.7719864406779657 3.759237865135061 0.7858513559322031 3.7655180346265866 0.7998376271186438 C 3.710685240218527 0.7559247066120789 3.6661527966438925 0.7005180616994515 3.635060407507942 0.6375240677966107 C 3.6510490515757414 0.6403455932203398 3.6674017634401497 0.6426210169491531 3.682874644796081 0.6460493220338985 Z" fill="#13525f" transform="matrix(1,0,0,1,0,0)" fill-rule="evenodd"></path></g></g></g><defs><clipPath id="SvgjsClipPath1002"><path d=" M 3.53500244140625 -0.24709999999999988 h 1.2224789830508473 v 1.2171999999999998 h -1.2224789830508473 Z"></path></clipPath><clipPath id="SvgjsClipPath10016fcd812a-6090-4dd1-b5ef-815828fbc689"><path d=" M 3.53500244140625 -0.24709999999999988 L 4.757481424457097 -0.24709999999999988 L 4.757481424457097 0.9701 L 3.53500244140625 0.9701 Z"></path></clipPath></defs></svg>